# Blender v2.79 (sub 0) OBJ File: ''
# www.blender.org
o Cube.001_Cube.002
v -1.000000 0.000000 0.000000
v 0.000000 -1.000000 0.000000
v 0.000000 1.000000 0.000000
v 0.000000 0.000000 1.000000
v 1.000000 0.000000 0.000000
v 0.000000 0.000000 -1.000000
vn -0.5774 -0.5774 0.5774
vn -0.5774 0.5774 0.5774
vn -0.5774 -0.5774 -0.5774
vn -0.5774 0.5774 -0.5774
vn 0.5774 -0.5774 0.5774
vn 0.5774 0.5774 0.5774
vn 0.5774 -0.5774 -0.5774
vn 0.5774 0.5774 -0.5774
s off
f 2//1 4//1 1//1
f 4//2 3//2 1//2
f 2//3 1//3 6//3
f 3//4 6//4 1//4
f 2//5 5//5 4//5
f 3//6 4//6 5//6
f 2//7 6//7 5//7
f 3//8 5//8 6//8
