# Blender v2.79 (sub 0) OBJ File: ''
# www.blender.org
mtllib plato3.mtl
o Cube_Cube.001
v -0.000223 -1.000000 0.000223
v -0.000223 -0.000223 1.000000
v -1.000000 -0.000223 0.000223
v -0.000223 1.000000 0.000223
v -0.000223 -0.000223 -1.000000
v 1.000000 -0.000223 0.000223
vn -0.5774 -0.5774 0.5774
vn -0.5774 0.5772 0.5774
vn -0.5774 -0.5774 -0.5772
vn -0.5775 0.5773 -0.5773
vn 0.5772 -0.5774 0.5774
vn 0.5773 0.5773 0.5775
vn 0.5773 -0.5775 -0.5773
vn 0.5774 0.5774 -0.5774
g Cube_Cube.001_Material.001
usemtl Material.001
s off
f 1//1 2//1 3//1
f 2//2 4//2 3//2
f 1//3 3//3 5//3
f 4//4 5//4 3//4
f 1//5 6//5 2//5
f 4//6 2//6 6//6
f 1//7 5//7 6//7
f 4//8 6//8 5//8
